<?xml version="1.0" standalone="no"?>
<!DOCTYPE svg PUBLIC "-//W3C//DTD SVG 20010904//EN"
 "http://www.w3.org/TR/2001/REC-SVG-20010904/DTD/svg10.dtd">
<svg version="1.0" xmlns="http://www.w3.org/2000/svg"
 width="1126.000000pt" height="470.000000pt" viewBox="0 0 1126.000000 470.000000"
 preserveAspectRatio="xMidYMid meet">

<g transform="translate(0.000000,470.000000) scale(0.100000,-0.100000)"
fill="#000000" stroke="none">
<path d="M2079 4620 c-120 -21 -255 -127 -312 -247 -31 -66 -32 -72 -32 -203
0 -131 1 -137 32 -203 132 -278 521 -343 747 -123 58 57 78 89 107 174 26 75
26 218 0 301 -69 223 -287 344 -542 301z"/>
<path d="M700 3953 c-131 -11 -480 -81 -567 -114 -21 -8 -24 -14 -18 -37 4
-15 8 -28 9 -30 2 -1 65 -11 142 -21 544 -76 831 -206 800 -362 -7 -36 -57
-111 -100 -151 -115 -107 -334 -231 -624 -353 -102 -43 -112 -49 -106 -69 3
-11 9 -24 13 -27 3 -3 80 -2 171 4 342 20 625 -27 820 -136 100 -56 213 -169
263 -264 62 -117 87 -237 87 -414 0 -262 -55 -506 -186 -827 -138 -336 -328
-680 -515 -932 l-78 -104 21 -23 21 -22 51 42 c357 296 689 637 926 952 284
379 478 766 561 1119 38 163 49 258 49 428 0 137 -4 188 -24 286 -51 252 -159
458 -329 630 -233 236 -533 373 -927 422 -78 9 -356 11 -460 3z"/>
<path d="M2686 3141 c-9 -14 -28 -485 -24 -601 l3 -105 76 -3 c65 -2 78 0 83
15 4 9 7 92 7 183 0 91 3 171 8 178 6 10 25 -16 63 -85 54 -96 56 -98 94 -101
21 -1 44 1 50 5 6 5 37 50 68 101 32 50 60 92 63 92 3 0 4 -87 2 -192 l-4
-193 77 -3 c74 -3 78 -2 83 20 3 13 6 174 8 358 l2 335 -60 3 c-80 4 -97 -2
-119 -40 -87 -152 -152 -258 -158 -258 -3 0 -37 59 -75 131 -37 72 -76 139
-86 150 -14 15 -31 19 -87 19 -38 0 -71 -4 -74 -9z"/>
<path d="M3936 3129 c-14 -11 -26 -26 -26 -32 0 -10 -45 -128 -85 -222 -41
-97 -165 -423 -165 -433 0 -9 22 -12 82 -10 l83 3 22 55 22 55 138 0 137 0 11
-35 c23 -78 28 -81 113 -78 61 2 77 6 76 18 -1 8 -30 94 -64 190 -34 96 -85
241 -113 322 -29 81 -60 157 -69 168 -25 29 -124 29 -162 -1z m153 -421 c1 -5
-35 -8 -79 -8 -44 0 -80 4 -80 10 0 8 59 178 77 220 5 12 80 -190 82 -222z"/>
<path d="M4800 3124 c-6 -14 -10 -44 -10 -67 0 -23 -4 -80 -9 -127 -6 -47 -15
-136 -22 -198 -13 -121 -24 -142 -76 -142 -33 0 -43 -29 -43 -125 0 -116 6
-125 78 -125 32 0 63 5 70 12 7 7 12 31 12 55 l0 43 200 0 200 0 0 -44 c0 -57
15 -68 87 -64 l58 3 6 110 c4 69 3 115 -3 123 -6 6 -25 12 -42 12 l-31 0 3
265 c3 199 1 269 -8 280 -10 12 -52 15 -236 15 l-224 0 -10 -26z m308 -331
l-3 -208 -107 -3 c-60 -1 -108 0 -108 4 0 4 6 15 14 23 12 15 23 100 42 319
l6 72 79 0 79 0 -2 -207z"/>
<path d="M5665 3140 c-7 -11 6 -30 104 -145 33 -38 71 -86 86 -106 l26 -37
-54 -88 c-30 -49 -86 -140 -126 -202 -39 -62 -69 -118 -66 -123 4 -5 43 -9 89
-9 68 0 86 3 100 19 9 10 52 77 94 150 l78 131 27 -30 c26 -29 27 -34 27 -150
l0 -120 79 0 c63 0 80 3 85 16 3 9 6 64 6 123 0 105 1 108 28 134 l28 27 15
-27 c47 -90 143 -250 157 -261 20 -15 174 -13 179 4 2 5 -20 48 -48 95 -29 46
-57 93 -63 104 -6 11 -21 34 -33 52 -13 17 -23 34 -23 37 0 3 -16 30 -35 60
-19 30 -35 59 -35 63 0 5 10 19 23 33 106 119 197 234 197 249 0 17 -161 14
-186 -3 -11 -8 -61 -69 -110 -135 l-89 -121 -3 122 c-1 69 -7 127 -14 135 -14
18 -132 18 -146 0 -7 -7 -13 -66 -14 -133 l-3 -119 -95 127 c-52 70 -104 129
-115 132 -35 10 -164 6 -170 -4z"/>
<path d="M6897 3138 c-3 -7 52 -124 121 -259 l125 -247 -41 -86 c-23 -48 -42
-93 -42 -102 0 -12 14 -14 83 -12 l82 3 65 130 c167 332 271 557 266 570 -4
11 -23 15 -80 15 -95 0 -81 18 -223 -290 l-21 -45 -27 60 c-73 165 -121 257
-136 266 -27 14 -166 11 -172 -3z"/>
<path d="M7892 3138 c-9 -9 -12 -98 -12 -337 0 -180 3 -336 6 -348 6 -21 12
-23 85 -23 l79 0 0 140 0 140 125 0 125 0 0 -129 c0 -98 3 -131 14 -140 9 -7
41 -11 83 -9 l68 3 3 344 c2 245 -1 348 -9 357 -7 9 -33 14 -69 14 -94 0 -90
7 -90 -146 l0 -134 -125 0 -125 0 0 134 c0 113 -2 135 -16 140 -28 11 -130 6
-142 -6z"/>
<path d="M9064 3140 c-16 -6 -36 -49 -84 -182 -95 -262 -96 -266 -136 -373
-20 -55 -39 -112 -41 -127 l-5 -28 79 0 c88 0 88 0 113 83 l12 37 136 0 137 0
21 -57 20 -58 79 -3 c43 -2 81 1 85 5 5 4 -25 91 -64 193 -40 102 -99 254
-132 339 -32 85 -65 160 -72 168 -15 15 -114 17 -148 3z m115 -318 c22 -63 41
-115 41 -118 0 -2 -38 -4 -84 -4 l-85 0 41 121 c22 66 41 119 43 117 1 -2 21
-54 44 -116z"/>
<path d="M9692 3138 c-12 -12 -16 -95 -6 -122 5 -13 24 -16 105 -16 l99 0 0
-274 c0 -223 3 -276 14 -285 9 -7 41 -11 83 -9 l68 3 3 283 2 282 94 0 c76 0
95 3 100 16 9 24 7 80 -4 108 l-10 26 -268 0 c-195 0 -271 -3 -280 -12z"/>
<path d="M10732 3141 c-7 -4 -33 -66 -58 -137 -25 -71 -74 -210 -109 -309 -34
-99 -68 -193 -74 -208 -22 -56 -19 -58 71 -55 l82 3 19 58 20 57 138 0 137 0
12 -37 c25 -79 32 -83 121 -83 79 0 80 0 73 23 -8 28 -81 215 -94 242 -5 11
-44 108 -86 215 -41 107 -82 205 -90 218 -13 19 -23 22 -82 22 -37 0 -73 -4
-80 -9z m127 -319 c22 -63 41 -115 41 -118 0 -2 -36 -4 -80 -4 -57 0 -80 4
-80 12 0 7 14 56 31 108 17 52 33 101 35 109 6 20 7 18 53 -107z"/>
<path d="M5715 2060 c-93 -13 -179 -71 -214 -143 -19 -39 -21 -61 -21 -230 0
-103 5 -198 10 -213 33 -87 130 -149 248 -160 139 -13 282 66 312 174 21 78 9
92 -76 92 -66 0 -78 -7 -89 -52 -12 -46 -39 -61 -111 -62 -62 -1 -67 1 -95 32
l-29 32 0 159 0 159 29 31 c18 19 40 32 58 32 89 5 136 -12 153 -57 9 -23 14
-24 85 -24 87 0 95 7 76 71 -34 113 -179 182 -336 159z"/>
<path d="M2652 2028 c-5 -12 -12 -172 -16 -355 -7 -324 -7 -332 13 -342 26
-14 227 -14 310 0 36 7 81 18 99 26 49 20 129 106 142 151 5 20 10 110 10 200
0 186 -8 213 -79 274 -62 52 -97 60 -293 65 l-178 5 -8 -24z m364 -161 c23
-27 24 -34 24 -169 0 -135 -1 -143 -25 -174 -20 -26 -37 -35 -80 -44 -30 -6
-71 -10 -92 -8 l-38 3 3 130 c1 72 5 168 8 213 l6 84 85 -4 c78 -3 87 -5 109
-31z"/>
<path d="M3783 2038 c-20 -26 -274 -690 -269 -704 7 -18 125 -19 149 -1 9 6
25 35 35 62 l20 50 137 0 138 0 19 -56 c21 -64 29 -69 121 -69 39 0 59 4 63
13 3 8 -17 77 -45 153 -27 76 -79 224 -116 329 -36 104 -73 200 -81 212 -13
20 -23 23 -88 23 -47 0 -77 -5 -83 -12z m157 -430 c0 -5 -36 -8 -80 -8 -45 0
-80 4 -80 10 0 5 15 51 34 102 19 51 38 104 42 118 6 21 14 4 46 -95 21 -66
38 -123 38 -127z"/>
<path d="M4536 2033 c-2 -10 -7 -168 -11 -351 -5 -255 -4 -336 5 -347 8 -10
32 -15 70 -15 93 0 90 -5 91 134 1 66 4 158 7 203 l7 83 114 -191 c63 -105
123 -199 134 -210 15 -14 35 -19 72 -19 91 0 86 -19 92 351 3 179 3 338 -1
353 -7 27 -7 27 -84 24 l-77 -3 -5 -205 -5 -205 -46 75 c-25 41 -80 132 -122
201 -43 70 -84 130 -93 133 -9 3 -44 6 -79 6 -52 0 -65 -3 -69 -17z"/>
<path d="M6430 2031 c-6 -13 -10 -141 -10 -355 0 -321 1 -336 19 -346 12 -6
114 -10 261 -10 147 0 249 4 261 10 28 16 28 124 0 140 -12 6 -94 10 -197 10
l-177 0 7 46 c3 26 6 60 6 76 l0 28 150 -1 c82 0 154 2 160 6 5 3 10 35 10 70
0 48 -4 64 -16 69 -9 3 -81 6 -160 6 l-144 0 0 60 0 60 178 2 177 3 0 70 0 70
-257 3 c-246 2 -258 2 -268 -17z"/>
<path d="M2443 843 c-7 -3 -13 -20 -13 -39 0 -34 0 -34 45 -34 l44 0 3 -132 3
-133 34 -3 c20 -2 37 2 42 10 5 7 9 68 9 136 l0 122 45 0 c45 0 45 0 45 35 l0
35 -82 2 c-46 1 -101 3 -123 4 -22 0 -46 -1 -52 -3z"/>
<path d="M7460 828 c-53 -27 -69 -61 -69 -156 -1 -78 18 -126 61 -152 81 -49
208 -2 208 77 0 19 -5 23 -33 23 -26 0 -36 -6 -45 -25 -9 -19 -19 -25 -44 -25
-18 0 -40 4 -47 9 -19 12 -27 125 -12 163 15 38 54 47 91 19 37 -27 90 -29 90
-2 0 30 -38 70 -78 81 -54 15 -73 13 -122 -12z"/>
<path d="M2880 836 c0 -2 -27 -75 -60 -162 -33 -87 -60 -162 -60 -166 0 -4 18
-8 39 -8 34 0 40 4 50 30 10 29 12 30 74 30 62 0 65 -1 77 -30 11 -26 17 -30
52 -30 28 0 39 4 36 13 -3 6 -31 83 -63 170 l-57 157 -44 0 c-24 0 -44 -2 -44
-4z m76 -180 c6 -24 4 -26 -30 -26 -41 0 -43 6 -19 69 l17 45 13 -31 c6 -17
15 -42 19 -57z"/>
<path d="M3194 827 c-2 -7 -3 -82 -2 -167 l3 -155 37 -3 37 -3 3 68 3 68 57 3
57 3 3 -68 3 -68 38 -3 c25 -2 37 1 37 10 5 139 6 287 2 305 -4 21 -9 24 -41
21 l-36 -3 -3 -63 -3 -63 -57 3 -57 3 -3 63 -3 62 -35 0 c-19 0 -37 -6 -40
-13z"/>
<path d="M3614 827 c-2 -7 -3 -82 -2 -167 l3 -155 122 -3 c117 -2 122 -3 125
-25 2 -17 10 -22 33 -22 29 0 30 1 33 53 3 47 1 54 -17 59 -20 5 -21 13 -21
139 l0 134 -40 0 c-22 0 -40 -3 -41 -7 0 -5 -1 -64 -2 -133 l-2 -125 -52 -3
c-60 -3 -55 -15 -53 120 1 42 -2 92 -6 112 -6 33 -9 36 -40 36 -19 0 -37 -6
-40 -13z"/>
<path d="M4042 673 l3 -168 128 -3 127 -3 0 36 0 35 -90 0 -90 0 0 35 0 34 78
3 77 3 3 33 3 32 -80 0 -81 0 0 30 0 29 88 3 87 3 0 30 0 30 -128 3 -127 3 2
-168z"/>
<path d="M4430 670 l0 -170 88 0 c101 0 151 12 178 41 24 27 25 91 0 118 -17
18 -17 21 -2 43 18 26 21 61 6 89 -20 36 -63 49 -170 49 l-100 0 0 -170z m198
72 c3 -18 -2 -23 -27 -28 -27 -6 -31 -11 -31 -40 0 -29 3 -34 24 -34 48 0 58
-52 13 -64 -12 -3 -39 -6 -59 -6 l-38 0 0 100 0 101 58 -3 c51 -3 57 -6 60
-26z"/>
<path d="M4920 820 c-6 -11 -33 -80 -60 -152 -26 -73 -52 -141 -55 -150 -6
-15 -1 -18 34 -18 38 0 43 3 52 30 11 29 13 30 74 30 60 0 63 -1 75 -31 11
-27 17 -30 49 -27 26 2 35 7 33 18 -2 8 -28 84 -59 168 l-56 152 -38 0 c-28 0
-41 -5 -49 -20z m76 -164 c6 -24 4 -26 -30 -26 -41 0 -42 0 -19 66 l17 49 12
-31 c7 -17 16 -43 20 -58z"/>
<path d="M5256 753 c-12 -161 -16 -181 -38 -186 -15 -4 -19 -12 -16 -34 2 -23
8 -29 34 -31 19 -2 39 4 54 16 21 17 25 32 34 136 l10 116 43 0 43 0 0 -136 0
-135 38 3 37 3 3 168 2 167 -119 0 -119 0 -6 -87z"/>
<path d="M5632 673 l3 -168 55 -3 c137 -8 200 28 200 113 0 25 -5 55 -10 66
-16 29 -64 49 -120 49 l-50 0 0 55 0 55 -40 0 -40 0 2 -167z m176 -25 c32 -32
2 -70 -56 -72 -37 -1 -37 -1 -40 42 l-3 42 43 0 c24 0 49 -5 56 -12z"/>
<path d="M6022 673 l3 -168 35 0 35 0 3 68 3 67 54 0 54 0 3 -67 3 -68 38 -3
37 -3 0 171 0 171 -37 -3 -38 -3 -3 -62 -3 -63 -54 0 -55 0 0 65 0 65 -40 0
-40 0 2 -167z"/>
<path d="M6509 813 c-35 -89 -109 -296 -109 -304 0 -5 16 -9 36 -9 31 0 37 4
47 30 11 29 14 30 75 30 61 0 63 -1 73 -30 10 -26 16 -30 50 -30 21 0 39 2 39
4 0 3 -100 280 -115 319 -5 12 -18 17 -46 17 -34 0 -41 -4 -50 -27z m69 -122
c17 -56 16 -61 -23 -61 -19 0 -35 1 -35 3 0 15 34 97 39 97 4 0 13 -17 19 -39z"/>
<path d="M6854 821 c-63 -38 -66 -136 -7 -179 l26 -19 -37 -54 c-20 -29 -36
-57 -36 -62 0 -4 19 -7 42 -5 39 3 46 8 80 57 50 72 50 103 1 128 -68 32 -47
83 33 83 l44 0 0 -130 c0 -142 3 -149 55 -136 l25 7 -2 162 -3 162 -95 3 c-80
2 -100 -1 -126 -17z"/>
<path d="M7767 833 c-4 -3 -7 -19 -7 -34 0 -26 3 -28 48 -31 l47 -3 1 -123 c0
-129 6 -146 45 -140 24 3 24 5 27 136 l3 132 44 0 c49 0 60 10 51 46 -6 24 -7
24 -130 24 -67 0 -126 -3 -129 -7z"/>
<path d="M8110 830 c0 -6 25 -59 55 -120 l55 -109 -20 -43 c-21 -48 -16 -61
26 -56 27 3 36 16 106 158 42 85 77 161 78 168 0 9 -12 12 -37 10 -36 -3 -40
-6 -75 -77 l-37 -75 -35 77 -35 77 -40 0 c-23 0 -41 -5 -41 -10z"/>
<path d="M8566 832 c-2 -4 -7 -52 -11 -107 -8 -132 -11 -145 -35 -145 -18 0
-20 -7 -20 -61 l0 -60 33 3 c24 2 33 8 35 26 3 21 8 22 93 22 82 0 89 -2 89
-20 0 -21 40 -38 59 -25 6 3 11 31 11 61 0 47 -2 54 -20 54 -19 0 -20 7 -20
130 l0 130 -104 0 c-58 0 -107 -4 -110 -8z m144 -157 l0 -95 -48 0 -48 0 9 73
c15 120 13 117 52 117 l35 0 0 -95z"/>
<path d="M8937 834 c-4 -4 -7 -79 -7 -166 l0 -158 39 0 c40 0 40 1 95 93 l56
92 0 -92 c0 -99 4 -104 58 -95 22 4 22 5 20 166 l-3 161 -35 0 c-33 0 -37 -5
-90 -90 l-55 -90 -5 90 -5 90 -30 3 c-17 2 -34 0 -38 -4z"/>
<path d="M9393 833 c-12 -2 -34 -18 -48 -34 -36 -44 -34 -98 6 -144 l31 -35
-32 -50 c-18 -28 -31 -52 -29 -54 4 -4 47 -9 66 -7 20 2 83 103 83 133 0 22
-7 31 -35 42 -27 12 -35 21 -35 40 0 30 25 46 74 46 l36 0 0 -131 0 -130 38 3
37 3 3 140 c4 196 9 185 -91 184 -45 -1 -92 -4 -104 -6z"/>
</g>
</svg>
